<svg width="320" height="230" fill="none" xmlns="http://www.w3.org/2000/svg"><path opacity=".7" fill-rule="evenodd" clip-rule="evenodd" d="M0 224.62c8.96-3.216 18.087-7.827 27.104-13.709 3.035 3.885 6.592 7.281 10.676 10.109 22.264 15.417 54.896 10.301 86.186-10.126a48.724 48.724 0 0 0 10.693 10.126c22.265 15.413 54.895 10.304 86.188-10.108 3.035 3.884 6.592 7.28 10.675 10.108 22.264 15.417 54.897 10.301 86.187-10.127a50.03 50.03 0 0 0 2.291 2.73v-3.074a45.708 45.708 0 0 1-.614-.766l.614-.414v-2.422c-.606.418-1.212.831-1.819 1.238-8.961-12.401-12.851-29.684-11.589-49.541 1.033-16.261 5.525-34.113 13.408-52.12v-4.862c-19.423 41.736-20.954 83.388-3.493 107.629-6.244 4.07-12.536 7.517-18.778 10.3-24.628 10.984-48.128 11.516-65.064-.213-3.86-2.673-7.241-5.887-10.141-9.576a166.285 166.285 0 0 0 10.666-7.799v-2.561a164.74 164.74 0 0 1-11.871 8.762c-8.968-12.402-12.862-29.693-11.6-49.56 1.704-26.813 12.807-57.951 33.009-86.98 14.627-21.017 31.961-37.964 49.747-49.879 7.301 10.087 11.241 23.41 11.78 38.722h2.002c-.539-15.601-4.545-29.345-12.108-39.828 6.23-4.056 12.507-7.493 18.733-10.27A113.614 113.614 0 0 1 320 7.514V5.389c-8.943 3.213-18.053 7.818-27.053 13.689-3.035-3.88-6.59-7.272-10.671-10.098-22.275-15.42-54.926-10.3-86.232 10.137A48.69 48.69 0 0 0 185.347 8.98C163.094-6.43 130.481-1.326 99.204 19.078A48.7 48.7 0 0 0 88.532 8.98C66.258-6.44 33.607-1.32 2.301 19.117A50.341 50.341 0 0 0 0 16.373v3.075c.21.257.419.517.625.779L0 20.648v2.422c.609-.42 1.218-.835 1.828-1.244 8.953 12.4 12.84 29.678 11.578 49.53C12.373 87.618 7.882 105.472 0 123.482v4.862c19.416-41.731 20.95-83.38 3.502-107.625 6.252-4.074 12.552-7.525 18.801-10.31C46.939-.576 70.447-1.108 87.39 10.621c3.858 2.67 7.238 5.882 10.137 9.566-17.986 12.067-35.46 29.178-50.185 50.338-35.424 50.9-43.289 108.469-21.44 138.784-6.237 4.061-12.522 7.502-18.756 10.282A113.698 113.698 0 0 1 0 222.496v2.124Zm27.576-16.416c-8.968-12.402-12.861-29.693-11.599-49.56 1.704-26.813 12.807-57.951 33.009-86.98C63.613 50.648 80.946 33.7 98.732 21.786c7.301 10.087 11.241 23.41 11.779 38.722h2.003c-.539-15.6-4.545-29.344-12.107-39.827 6.23-4.057 12.506-7.494 18.733-10.271 24.628-10.984 48.128-11.516 65.064.213 3.871 2.68 7.259 5.904 10.164 9.605-17.971 12.064-35.429 29.162-50.144 50.3-35.428 50.889-43.3 108.445-21.459 138.765-6.245 4.069-12.536 7.516-18.778 10.299-24.628 10.984-48.128 11.516-65.064-.213-3.86-2.673-7.242-5.888-10.142-9.576a166.293 166.293 0 0 0 10.666-7.799v-2.561a164.85 164.85 0 0 1-11.87 8.762ZM281.133 10.622c3.858 2.67 7.237 5.881 10.136 9.565-17.986 12.067-35.459 29.179-50.185 50.34-35.424 50.899-43.288 108.469-21.439 138.783-6.238 4.061-12.522 7.502-18.756 10.282-24.637 10.983-48.144 11.515-65.087-.214-3.868-2.677-7.255-5.898-10.159-9.594 17.971-12.065 35.428-29.167 50.143-50.31 35.412-50.884 43.283-108.433 21.459-138.755 6.252-4.074 12.552-7.525 18.801-10.31 24.636-10.984 48.144-11.516 65.087.213ZM124.438 208.185c17.771-11.913 35.088-28.849 49.703-49.85 20.202-29.028 31.305-60.166 33.009-86.98 1.261-19.85-2.625-37.13-11.578-49.53-17.771 11.913-35.088 28.845-49.704 49.84-20.208 29.027-31.315 60.166-33.019 86.979-1.262 19.857 2.628 37.14 11.589 49.541Z" fill="#fff"/></svg>